Coordinates
nRows=225
nColumns=2
inDegrees=yes
endheader
time	ankle_angle_r	
2.99395	  9.650615	
3.02722	  9.582801	
3.06048	  9.547381	
3.09375	  9.549043	
3.12702	  9.567830	
3.16028	  9.584158	
3.19355	  9.590173	
3.22681	  9.586459	
3.26008	  9.579112	
3.29335	  9.572500	
3.32661	  9.567046	
3.35988	  9.565513	
3.39315	  9.571628	
3.42641	  9.585696	
3.45968	  9.604175	
3.49294	  9.617759	
3.52621	  9.617336	
3.55948	  9.606058	
3.59274	  9.593932	
3.62601	  9.586513	
3.65927	  9.586511	
3.69254	  9.593643	
3.72581	  9.604867	
3.75907	  9.615569	
3.79234	  9.615920	
3.8256	  9.602601	
3.85887	  9.589637	
3.89214	  9.592465	
3.9254	  9.612976	
3.95867	  9.640264	
3.99194	  9.658170	
4.0252	  9.658631	
4.05847	  9.645408	
4.09173	  9.626389	
4.125	  9.610581	
4.15827	  9.604179	
4.19153	  9.606379	
4.2248	  9.612131	
4.25806	  9.615991	
4.29133	  9.619009	
4.3246	  9.630922	
4.35786	  9.654679	
4.39113	  9.675774	
4.4244	  9.677777	
4.45766	  9.661282	
4.49093	  9.640879	
4.52419	  9.628598	
4.55746	  9.625644	
4.59073	  9.627117	
4.62399	  9.629019	
4.65726	  9.630283	
4.69052	  9.631907	
4.72379	  9.637518	
4.75706	  9.648145	
4.79032	  9.655939	
4.82359	  9.656791	
4.85685	  9.659111	
4.89012	  9.665505	
4.92339	  9.665882	
4.95665	  9.655427	
4.98992	  9.640207	
5.02319	  9.626871	
5.05645	  9.616317	
5.08972	  9.607731	
5.12298	  9.605760	
5.15625	  9.611824	
5.18952	  9.614188	
5.22278	  9.605486	
5.25605	  9.595758	
5.28931	  9.593131	
5.32258	  9.592213	
5.35585	  9.588352	
5.38911	  9.585994	
5.42238	  9.589675	
5.45565	  9.594617	
5.48891	  9.593071	
5.52218	  9.585559	
5.55544	  9.577004	
5.58871	  9.570839	
5.62198	  9.569413	
5.65524	  9.570774	
5.68851	  9.571569	
5.72177	  9.572654	
5.75504	  9.573826	
5.78831	  9.573503	
5.82157	  9.573500	
5.85484	  9.574289	
5.8881	  9.574715	
5.92137	  9.576829	
5.95464	  9.581431	
5.9879	  9.585616	
6.02117	  9.586356	
6.05444	  9.582416	
6.0877	  9.578327	
6.12097	  9.581796	
6.15423	  9.592473	
6.1875	  9.601702	
6.22077	  9.600893	
6.25403	  9.587536	
6.2873	  9.571689	
6.32056	  9.569455	
6.35383	  9.580865	
6.3871	  9.590786	
6.42036	  9.594263	
6.45363	  9.599592	
6.4869	  9.612340	
6.52016	  9.628984	
6.55343	  9.639477	
6.58669	  9.639664	
6.61996	  9.637880	
6.65323	  9.640761	
6.68649	  9.646104	
6.71976	  9.647859	
6.75302	  9.638451	
6.78629	  9.618996	
6.81956	  9.601641	
6.85282	  9.591940	
6.88609	  9.585018	
6.91935	  9.575878	
6.95262	  9.563867	
6.98589	  9.555696	
7.01915	  9.557814	
7.05242	  9.565741	
7.08569	  9.571578	
7.11895	  9.572651	
7.15222	  9.570344	
7.18548	  9.567450	
7.21875	  9.565211	
7.25202	  9.565536	
7.28528	  9.571891	
7.31855	  9.581502	
7.35181	  9.587198	
7.38508	  9.587838	
7.41835	  9.586579	
7.45161	  9.585425	
7.48488	  9.585433	
7.51815	  9.584839	
7.55141	  9.582075	
7.58468	  9.581642	
7.61794	  9.586272	
7.65121	  9.591048	
7.68448	  9.592632	
7.71774	  9.592551	
7.75101	  9.592397	
7.78427	  9.593489	
7.81754	  9.594398	
7.85081	  9.590249	
7.88407	  9.582411	
7.91734	  9.577986	
7.9506	  9.577784	
7.98387	  9.579296	
8.01714	  9.583341	
8.0504	  9.589216	
8.08367	  9.594420	
8.11694	  9.597489	
8.1502	  9.597593	
8.18347	  9.597578	
8.21673	  9.600514	
8.25	  9.603115	
8.28327	  9.602047	
8.31653	  9.599097	
8.3498	  9.598642	
8.38306	  9.604016	
8.41633	  9.612713	
8.4496	  9.619231	
8.48286	  9.620624	
8.51613	  9.615847	
8.5494	  9.606552	
8.58266	  9.597681	
8.61593	  9.592236	
8.64919	  9.589305	
8.68246	  9.587784	
8.71573	  9.587470	
8.74899	  9.590036	
8.78226	  9.596629	
8.81552	  9.602839	
8.84879	  9.606967	
8.88206	  9.614252	
8.91532	  9.622288	
8.94859	  9.622666	
8.98185	  9.618265	
9.01512	  9.616688	
9.04839	  9.615950	
9.08165	  9.608577	
9.11492	  9.590316	
9.14819	  9.567840	
9.18145	  9.555382	
9.21472	  9.554388	
9.24798	  9.554183	
9.28125	  9.552219	
9.31452	  9.550937	
9.34778	  9.549118	
9.38105	  9.547133	
9.41431	  9.544797	
9.44758	  9.539742	
9.48085	  9.534105	
9.51411	  9.531114	
9.54738	  9.530537	
9.58065	  9.532560	
9.61391	  9.535110	
9.64718	  9.535306	
9.68044	  9.536929	
9.71371	  9.541748	
9.74698	  9.544745	
9.78024	  9.544829	
9.81351	  9.543556	
9.84677	  9.540410	
9.88004	  9.538557	
9.91331	  9.542731	
9.94657	  9.552590	
9.97984	  9.562382	
10.0131	  9.564571	
10.0464	  9.559865	
10.0796	  9.557537	
10.1129	  9.561606	
10.1462	  9.569057	
10.1794	  9.576402	
10.2127	  9.580387	
10.246	  9.582809	
10.2792	  9.591817	
10.3125	  9.608948	
10.3458	  9.625088	
10.379	  9.632033	
10.4123	  9.628459	
10.4456	  9.618274	
